<svg viewBox="0 0 32 32" xmlns="http://www.w3.org/2000/svg" fill="#f43f5e"><path d="M16 1c2.008 0 3.463.963 4.751 3.269l.533 1.025c1.954 3.83 6.114 12.54 7.1 14.836l.145.353c.667 1.591.91 2.472.96 3.396l.01.415v.301c0 4.262-2.87 7.405-6.66 7.405-2.008 0-3.463-.963-4.751-3.269l-.533-1.025c-1.954-3.83-6.114-12.54-7.1-14.836l-.145-.353c-.667-1.591-.91-2.472-.96-3.396l-.01-.415v-.301c0-4.262 2.87-7.405 6.66-7.405zm0 2.249c-2.316 0-3.969 1.942-3.969 4.407 0 .793.183 1.54.526 2.366l.135.293c.895 1.91 4.708 9.814 6.69 13.82l.533 1.025c1.025 1.91 1.761 2.41 2.41 2.41.648 0 1.384-.5 2.41-2.41l.533-1.025c1.982-4.006 5.795-11.91 6.69-13.82l.135-.293c.343-.826.526-1.573.526-2.366 0-2.465-1.653-4.407-3.969-4.407-1.353 0-2.355.672-3.327 2.41l-.533 1.025c-1.606 3.104-4.802 9.537-6.31 12.607l-.145.31c-.512 1.03-.895 1.488-1.255 1.488-.36 0-.743-.458-1.255-1.488l-.145-.31c-1.508-3.07-4.704-9.503-6.31-12.607l-.533-1.025c-.972-1.738-1.974-2.41-3.327-2.41zm0 7.842c.648 0 1.384.5 2.41 2.41l.533 1.025c1.606 3.104 4.802 9.537 6.31 12.607l.145.31c.512 1.03.895 1.488 1.255 1.488.36 0 .743-.458 1.255-1.488l.145-.31c1.508-3.07 4.704-9.503 6.31-12.607l.533-1.025c1.025-1.91 1.761-2.41 2.41-2.41s1.384.5 2.41 2.41l.533 1.025c1.982 4.006 5.795 11.91 6.69 13.82l.135.293c.343.826.526 1.573.526 2.366 0 2.465-1.653 4.407-3.969 4.407-2.316 0-3.969-1.942-3.969-4.407 0-.793.183-1.54.526-2.366l.135-.293c.895-1.91 4.708-9.814 6.69-13.82l.533-1.025c1.025-1.91 1.761-2.41 2.41-2.41z"></path></svg>
